#!OML:ASF F:\VICON\USERDATA\INSTALL\rory3\rory3.ASF
:FULLY-SPECIFIED
:DEGREES
479
root -0.601534 18.3761 48.656 -5.81708 -6.11704 2.06355
lowerback 14.3764 -1.00926 -2.78894
upperback -0.850294 -1.57798 2.78812
thorax -8.85461 -0.55571 4.93451
lowerneck -8.82914 0.0330074 -2.02191
upperneck 29.8865 1.1801 -2.76791
head 11.1159 -0.0465226 -0.523371
rclavicle -2.49847e-014 3.33958e-014
rhumerus -39.1301 -12.9866 -74.208
rradius 26.7634
rwrist 2.97796
rhand -13.5742 10.0245
rfingers 7.12502
rthumb 12.5396 -19.5792
lclavicle -2.49847e-014 3.33958e-014
lhumerus -39.334 3.56022 85.7772
lradius 40.6375
lwrist 5.96309
lhand -12.7555 51.4886
lfingers 7.12502
lthumb 13.3289 81.0423
rfemur -17.6928 3.52395 21.8227
rtibia 24.2796
rfoot -5.059 -11.2417
rtoes 17.6549
lfemur 14.6571 -3.62282 -25.0308
ltibia 28.5548
lfoot 2.85519 -3.18192
ltoes -25.1093
480
root -0.651973 18.3904 48.8089 -6.01147 -6.76828 1.18225
lowerback 16.2678 -0.997408 -2.32828
upperback -1.75221 -1.45193 3.20197
thorax -10.9575 -0.426147 5.21645
lowerneck -8.71646 0.263007 -1.98868
upperneck 30.6544 1.51622 -2.76978
head 11.3945 0.0933219 -0.496816
rclavicle -2.59414e-014 -1.43125e-014
rhumerus -40.4445 -12.1924 -73.7726
rradius 26.7726
rwrist 3.35824
rhand -13.3839 9.70952
rfingers 7.12502
rthumb 12.7231 -19.8829
lclavicle -2.59414e-014 -1.43125e-014
lhumerus -41.4652 4.2089 85.7538
lradius 40.9304
lwrist 5.85112
lhand -12.5967 51.291
lfingers 7.12502
lthumb 13.482 80.8346
rfemur -17.0996 3.95127 23.1011
rtibia 24.7824
rfoot -5.29974 -10.8943
rtoes 17.9057
lfemur 14.1922 -2.85898 -23.5436
ltibia 30.0806
lfoot 5.44887 -3.78837
ltoes -21.2139
481
root -0.682875 18.4021 48.939 -5.82077 -6.77684 1.9038
lowerback 14.3914 -0.894463 -2.79103
upperback -0.587626 -1.42149 2.8565
thorax -8.59113 -0.490608 4.9686
lowerneck -9.97107 0.101679 -2.02902
upperneck 29.6458 1.19987 -2.36585
head 11.2489 0.00550082 -0.370998
rclavicle -1.06723e-014 1.90833e-014
rhumerus -38.21 -13.8675 -73.8886
rradius 26.0902
rwrist 4.1218
rhand -13.4073 9.93032
rfingers 7.12502
rthumb 12.7006 -19.6635
lclavicle -1.06723e-014 1.90833e-014
lhumerus -39.5669 3.97812 85.9875
lradius 40.637
lwrist 5.76697
lhand -12.595 50.9752
lfingers 7.12502
lthumb 13.4836 80.5187
rfemur -17.0983 3.35367 22.4397
rtibia 25.0384
rfoot -5.11281 -9.94765
rtoes 18.1627
lfemur 12.6865 -2.55195 -23.9889
ltibia 32.0293
lfoot 8.29074 -4.19288
ltoes -18.7352
482
root -0.731069 18.4075 49.161 -6.71309 -7.13788 2.60214
lowerback 13.7288 -0.893285 -3.6979
upperback 0.783037 -1.57759 2.62328
thorax -6.70374 -0.62085 5.19647
lowerneck -12.8799 0.291756 -1.56093
upperneck 29.7724 1.47235 -2.37755
head 11.8961 0.156523 -0.420076
rclavicle 6.13748e-015 -1.19271e-014
rhumerus -35.8273 -14.6061 -74.4863
rradius 25.2549
rwrist 4.97354
rhand -13.4624 10.1658
rfingers 7.12502
rthumb 12.6474 -19.4313
lclavicle 6.13748e-015 -1.19271e-014
lhumerus -38.0297 4.27339 85.9191
lradius 40.3875
lwrist 5.99962
lhand -12.5968 50.8286
lfingers 7.12502
lthumb 13.4818 80.3722
rfemur -15.6474 2.67455 21.9277
rtibia 25.4437
rfoot -5.43634 -8.47439
rtoes 18.9353
lfemur 12.9256 -1.89654 -24.5046
ltibia 33.7007
lfoot 10.8176 -4.67986
ltoes -18.7091
483
root -0.749689 18.4271 49.2266 -5.96838 -7.0325 1.35852
lowerback 14.4403 -0.968722 -2.10271
upperback -0.338154 -1.39968 2.92608
thorax -8.36324 -0.519119 4.63878
lowerneck -10.4369 0.183715 -1.87427
upperneck 29.2064 1.22317 -2.13869
head 11.1708 0.0649655 -0.308694
rclavicle 1.9279e-014 3.97569e-015
rhumerus -37.3106 -14.3905 -73.7547
rradius 25.1625
rwrist 4.97049
rhand -13.5022 10.1648
rfingers 7.12502
rthumb 12.6091 -19.4347
lclavicle 1.9279e-014 3.97569e-015
lhumerus -39.8737 3.55448 86.4492
lradius 40.451
lwrist 6.07493
lhand -12.2855 50.8805
lfingers 7.12502
lthumb 13.7818 80.404
rfemur -15.9842 2.2854 23.3765
rtibia 25.3665
rfoot -4.91033 -8.16608
rtoes 20.3972
lfemur 10.4262 -1.85279 -22.6769
ltibia 36.2435
lfoot 13.618 -5.5649
ltoes -16.9836
484
root -0.822057 18.4389 49.4017 -6.30101 -7.46428 1.98235
lowerback 14.5532 -0.578598 -3.0491
upperback -0.969835 -1.04623 2.85358
thorax -9.13738 -0.274211 5.0521
lowerneck -8.17874 0.0468182 -2.25735
upperneck 28.7838 0.927808 -1.84113
head 10.5559 -0.0560458 -0.16914
rclavicle 1.58282e-014 -2.22639e-014
rhumerus -38.8892 -13.9667 -73.0782
rradius 25.1973
rwrist 4.88475
rhand -13.3719 9.92461
rfingers 7.12502
rthumb 12.7346 -19.6671
lclavicle 1.58282e-014 -2.22639e-014
lhumerus -41.857 2.92491 86.9781
lradius 40.563
lwrist 6.06373
lhand -11.9619 50.899
lfingers 7.12502
lthumb 14.0937 80.4011
rfemur -15.1201 3.10154 23.0278
rtibia 25.269
rfoot -4.62771 -8.8191
rtoes 21.054
lfemur 9.40335 -1.19899 -22.8531
ltibia 38.4481
lfoot 15.5854 -6.36245
ltoes -15.7833
485
root -0.863238 18.4499 49.4621 -5.6308 -7.78494 -0.204635
lowerback 15.827 -0.903713 -1.24353
upperback -0.949156 -1.10538 3.41316
thorax -9.85894 -0.359031 4.69056
lowerneck -10.863 0.24716 -1.47274
upperneck 29.5538 1.23251 -2.11362
head 11.3916 0.106619 -0.369907
rclavicle -3.92972e-014 1.51076e-014
rhumerus -37.357 -13.9851 -73.8288
rradius 24.7021
rwrist 5.57938
rhand -13.2322 9.74197
rfingers 7.12502
rthumb 12.8694 -19.8413
lclavicle -3.92972e-014 1.51076e-014
lhumerus -41.2082 3.30207 86.7057
lradius 40.4686
lwrist 6.09474
lhand -11.9363 50.7501
lfingers 7.12502
lthumb 14.1184 80.2505
rfemur -15.0007 3.81276 25.6623
rtibia 24.5766
rfoot -4.06519 -9.43275
rtoes 20.1785
lfemur 6.80624 -0.830728 -19.8319
ltibia 41.4487
lfoot 17.7062 -7.80055
ltoes -14.7444
486
root -0.890273 18.4643 49.6291 -5.85069 -7.5461 0.00897602
lowerback 14.9365 -0.890968 -1.12283
upperback -0.748606 -1.08657 3.29429
thorax -9.13414 -0.379296 4.44436
lowerneck -9.87548 0.0613018 -1.845
upperneck 29.0793 0.915173 -1.79299
head 11.0047 -0.026074 -0.225588
rclavicle -1.64494e-014 1.59028e-014
rhumerus -37.3237 -14.1894 -73.556
rradius 24.6765
rwrist 5.69072
rhand -13.1358 9.90319
rfingers 7.12502
rthumb 12.9623 -19.6742
lclavicle -1.64494e-014 1.59028e-014
lhumerus -41.4995 2.52343 87.3476
lradius 40.4581
lwrist 6.06716
lhand -11.9339 50.7106
lfingers 7.12502
lthumb 14.1207 80.2108
rfemur -14.0303 2.89121 25.5015
rtibia 24.4167
rfoot -4.38796 -8.69649
rtoes 20.13
lfemur 5.71982 -0.844476 -19.9201
ltibia 43.6857
lfoot 19.1097 -8.47977
ltoes -11.5607
487
root -0.954056 18.4708 49.7748 -6.09877 -8.24484 -0.809018
lowerback 13.9969 -0.670082 -0.603005
upperback 0.0604739 -0.712897 3.53779
thorax -7.75597 -0.252594 4.27289
lowerneck -9.93377 -0.0544293 -1.97588
upperneck 28.3922 0.68664 -1.50121
head 10.7533 -0.0990677 -0.121814
rclavicle 1.82602e-014 -3.10104e-014
rhumerus -36.174 -14.6756 -73.7664
rradius 24.56
rwrist 5.97146
rhand -13.1019 10.1092
rfingers 7.12502
rthumb 12.995 -19.4661
lclavicle 1.82602e-014 -3.10104e-014
lhumerus -40.7455 1.94424 87.7544
lradius 40.3347
lwrist 6.04307
lhand -11.8844 50.7561
lfingers 7.12502
lthumb 14.1684 80.2529
rfemur -12.9217 4.04261 26.7564
rtibia 24.0233
rfoot -4.56007 -8.91389
rtoes 21.5961
lfemur 4.5925 -0.0181574 -18.4816
ltibia 46.1496
lfoot 19.4902 -9.28182
ltoes -9.57602
488
root -0.957637 18.4785 49.8878 -5.84991 -7.5422 -0.525093
lowerback 14.6617 -0.962786 -0.476128
upperback -0.650508 -1.0683 3.34584
thorax -8.88205 -0.406318 4.11281
lowerneck -9.27452 -0.0355195 -1.90128
upperneck 28.494 0.667431 -1.47623
head 10.6603 -0.0967687 -0.128464
rclavicle 4.25648e-014 -2.06736e-014
rhumerus -36.7762 -14.0272 -73.7282
rradius 24.6129
rwrist 5.91338
rhand -13.0679 9.9374
rfingers 7.12502
rthumb 13.0278 -19.6358
lclavicle 4.25648e-014 -2.06736e-014
lhumerus -41.8866 1.61095 88.0734
lradius 40.3192
lwrist 5.98681
lhand -11.9674 50.5699
lfingers 7.12502
lthumb 14.0884 80.0723
rfemur -12.8674 2.61137 26.3226
rtibia 24.2368
rfoot -4.47037 -9.00017
rtoes 22.5019
lfemur 2.91329 -0.372017 -18.7926
ltibia 48.08
lfoot 19.7031 -9.41666
ltoes -6.64905
489
root -1.00445 18.478 50.0161 -6.00041 -7.79703 -0.922674
lowerback 14.9541 -0.893129 -0.263093
upperback -0.622761 -0.924425 3.45588
thorax -9.03093 -0.341663 4.08883
lowerneck -9.30197 -0.0706813 -1.79898
upperneck 28.4469 0.590918 -1.45942
head 10.6478 -0.118575 -0.148898
rclavicle 1.75427e-014 -1.43125e-014
rhumerus -36.5409 -13.5208 -73.9936
rradius 24.6706
rwrist 5.58786
rhand -13.0765 9.95259
rfingers 7.12502
rthumb 13.0195 -19.6211
lclavicle 1.75427e-014 -1.43125e-014
lhumerus -41.995 1.13841 88.4217
lradius 40.1279
lwrist 5.7769
lhand -11.8353 50.3635
lfingers 7.12502
lthumb 14.2157 79.857
rfemur -12.3885 2.96367 26.9812
rtibia 24.6494
rfoot -5.57644 -8.39136
rtoes 21.9555
lfemur 1.87746 0.123234 -17.9701
ltibia 49.9462
lfoot 18.7812 -9.61859
ltoes -8.52466
490
root -1.04268 18.4796 50.1525 -6.24148 -7.93697 -0.88468
lowerback 13.8494 -0.807873 -0.291314
upperback 0.470865 -0.871213 3.3855
thorax -7.22554 -0.356927 3.94572
lowerneck -10.4573 -0.148454 -1.76151
upperneck 27.9175 0.455993 -1.28797
head 10.6775 -0.152201 -0.108274
rclavicle 1.98163e-014 2.14687e-014
rhumerus -34.4708 -14.1457 -74.4731
rradius 24.4438
rwrist 5.96152
rhand -13.1627 10.0788
rfingers 7.12502
rthumb 12.9364 -19.5002
lclavicle 1.98163e-014 2.14687e-014
lhumerus -40.2608 0.648264 88.6965
lradius 39.7845
lwrist 5.52023
lhand -11.5395 50.4869
lfingers 7.12502
lthumb 14.5007 79.9602
rfemur -11.7022 3.08137 27.097
rtibia 24.8217
rfoot -5.68454 -8.98139
rtoes 21.8144
lfemur 0.948296 0.504022 -17.7551
ltibia 51.7233
lfoot 17.2272 -9.77848
ltoes -10.53
